<svg width="280" height="37" viewBox="0 0 280 37" fill="none" xmlns="http://www.w3.org/2000/svg">
<path d="M-46.5877 4.9682C-49.1956 4.9682 -51.6932 5.4259 -54 6.26301V37H334V10.7863C330.755 9.07692 327.036 8.10601 323.084 8.10601C314.765 8.10601 307.482 12.4072 303.468 18.8423C300.371 17.3269 296.871 16.4735 293.165 16.4735C287.559 16.4735 282.424 18.4266 278.442 21.6697C273.596 13.4126 264.442 7.84452 253.947 7.84452C242.802 7.84452 233.169 14.1242 228.602 23.2353C224.991 21.1018 220.749 19.8728 216.212 19.8728C206.553 19.8728 198.234 25.4423 194.483 33.4515C191.19 31.159 187.152 29.8092 182.789 29.8092C178.41 29.8092 174.357 31.1693 171.057 33.478C168.024 24.0784 158.977 17.2579 148.288 17.2579C144.226 17.2579 140.402 18.2429 137.054 19.98C132.976 12.8961 125.171 8.10601 116.213 8.10601C105.821 8.10601 96.9801 14.5536 93.7104 23.5505C89.6787 20.1212 84.396 18.0424 78.6127 18.0424C76.0729 18.0424 73.6296 18.4433 71.3464 19.1835C67.3667 8.01836 56.435 0 43.5728 0C33.2305 0 24.1364 5.18425 18.901 13.0201C15.2045 9.95613 10.4068 8.10601 5.1636 8.10601C-3.33261 8.10601 -10.6592 12.9641 -14.0257 19.973C-17.4769 19.973 -22.8394 20.6744 -25.7176 22.0962C-27.3869 12.377 -36.0954 4.9682 -46.5877 4.9682Z" fill="white"/>
</svg>
